<svg id="Capa_2" data-name="Capa 2" xmlns="http://www.w3.org/2000/svg" viewBox="0 0 110.1 68.32"><defs></defs><title>logobonotoloElementoDestacado_topaz</title><path class="cls-1" d="M6,64.39H8.09a1.13,1.13,0,1,1,.06,2.25H6Zm1.67-2.6H6.07V59.66H7.68a1,1,0,0,1,1,1,1,1,0,0,1-1,1.09m2.89.81A2.85,2.85,0,0,0,12,60a3.25,3.25,0,0,0-1-2.48,3.68,3.68,0,0,0-2.54-1H2.26V69.81H8.9a3.91,3.91,0,0,0,2.88-1.09,3.63,3.63,0,0,0,1.16-2.83,3.06,3.06,0,0,0-2.37-3.29" transform="translate(-2.26 -1.78)"/><path class="cls-1" d="M24.07,65.66a3.33,3.33,0,0,1-2.42,1,3.55,3.55,0,0,1-2.48-1,3.29,3.29,0,0,1-1-2.49,3.21,3.21,0,0,1,1-2.42,3.33,3.33,0,0,1,2.42-1,3.23,3.23,0,0,1,2.42,1,3.35,3.35,0,0,1,0,4.85m-2.42-9.29a7.15,7.15,0,0,0-5.19,2,6.36,6.36,0,0,0-2.14,4.84,6.29,6.29,0,0,0,2.14,4.85,7.3,7.3,0,0,0,5.19,2,7.15,7.15,0,0,0,5.19-2h0a6.55,6.55,0,0,0,0-9.69,7.25,7.25,0,0,0-5.19-2" transform="translate(-2.26 -1.78)"/><polygon class="cls-1" points="37.28 61.63 31.91 54.76 28.56 54.76 28.56 68.03 32.2 68.03 32.2 60.94 37.8 67.98 37.8 68.03 40.85 68.03 40.85 54.76 37.28 54.76 37.28 61.63"/><path class="cls-1" d="M54.77,65.66a3.33,3.33,0,0,1-2.42,1,3.55,3.55,0,0,1-2.48-1,3.29,3.29,0,0,1-1-2.49,3.24,3.24,0,0,1,1-2.42,3.35,3.35,0,0,1,2.43-1,3.23,3.23,0,0,1,2.42,1,3.35,3.35,0,0,1,0,4.85m-2.42-9.29a7.19,7.19,0,0,0-5.2,2A6.39,6.39,0,0,0,45,63.23a6.32,6.32,0,0,0,2.13,4.85,7.34,7.34,0,0,0,5.2,2,7.15,7.15,0,0,0,5.19-2h0a6.55,6.55,0,0,0,0-9.69,7.25,7.25,0,0,0-5.19-2" transform="translate(-2.26 -1.78)"/><polygon class="cls-1" points="63.01 54.76 59.26 54.76 59.26 68.03 68.03 68.03 68.03 64.63 63.01 64.63 63.01 54.76"/><path class="cls-1" d="M80.85,65.66a3.33,3.33,0,0,1-2.42,1,3.55,3.55,0,0,1-2.48-1,3.33,3.33,0,0,1-1-2.49,3.21,3.21,0,0,1,1-2.42,3.33,3.33,0,0,1,2.42-1,3.23,3.23,0,0,1,2.42,1,3.35,3.35,0,0,1,0,4.85m-2.48-9.29a7.15,7.15,0,0,0-5.19,2A6.4,6.4,0,0,0,71,63.23a6.33,6.33,0,0,0,2.14,4.85,7.3,7.3,0,0,0,5.19,2,7.19,7.19,0,0,0,5.2-2h0a6.41,6.41,0,0,0,2.13-4.85,6.51,6.51,0,0,0-2.13-4.84,7.09,7.09,0,0,0-5.2-2" transform="translate(-2.26 -1.78)"/><polygon class="cls-1" points="84.08 58.22 87.65 58.22 87.65 68.03 91.4 68.03 91.4 58.22 94.81 58.22 94.81 54.76 84.08 54.76 84.08 58.22"/><path class="cls-1" d="M107.46,65.66a3.36,3.36,0,0,1-2.43,1,3.55,3.55,0,0,1-2.48-1,3.33,3.33,0,0,1-1-2.49,3.25,3.25,0,0,1,1-2.42,3.33,3.33,0,0,1,2.42-1,3.27,3.27,0,0,1,2.43,1,3.32,3.32,0,0,1,1,2.42,3.11,3.11,0,0,1-1,2.43m2.76-7.27a7.3,7.3,0,0,0-5.19-2,7.15,7.15,0,0,0-5.19,2,6.4,6.4,0,0,0-2.14,4.84,6.33,6.33,0,0,0,2.14,4.85,7.3,7.3,0,0,0,5.19,2,7.15,7.15,0,0,0,5.19-2,6.38,6.38,0,0,0,2.14-4.85,6.48,6.48,0,0,0-2.14-4.84" transform="translate(-2.26 -1.78)"/><polygon class="cls-1" points="74.78 39.47 69.36 39.47 69.36 36.59 71.9 36.59 71.9 2.88 38.2 2.88 38.2 36.59 40.57 36.59 40.57 39.47 35.31 39.47 35.31 0 74.78 0 74.78 39.47"/><path class="cls-1" d="M48.19,25.67c-2.19-2.19-2.65-5.25-.46-7.45s5.31-1.73,7.5.47c2.6,2.59.06,7,1.21,8.13.06.06,0,.12-.11.12-1.21-1.21-5.43,1.44-8.14-1.27" transform="translate(-2.26 -1.78)"/><path class="cls-1" d="M66.31,25.67c2.19-2.19,2.66-5.25.46-7.45s-5.31-1.73-7.5.47c-2.59,2.59-.06,7-1.21,8.13-.06.06.06.12.12.12,1.21-1.21,5.42,1.44,8.13-1.27" transform="translate(-2.26 -1.78)"/><path class="cls-1" d="M48.19,29.36c-2.19,2.19-2.65,5.25-.46,7.45s5.31,1.73,7.5-.47c2.6-2.59.06-7,1.21-8.13.06-.06,0-.12-.11-.12-1.21,1.16-5.43-1.44-8.14,1.27" transform="translate(-2.26 -1.78)"/><path class="cls-1" d="M66.31,29.36c2.19,2.19,2.66,5.25.46,7.45s-5.31,1.73-7.5-.47c-2.59-2.59-.06-7-1.21-8.13-.06-.06.06-.12.12-.12,1.21,1.16,5.42-1.44,8.13,1.27" transform="translate(-2.26 -1.78)"/><path class="cls-1" d="M55.41,45.23a1.34,1.34,0,0,1-.81-.29,1.29,1.29,0,0,1-.23-1.84,8.61,8.61,0,0,0,1.56-5.54,1.3,1.3,0,0,1,1.26-1.39,1.35,1.35,0,0,1,1.39,1.27,10.91,10.91,0,0,1-2.14,7.27,1.21,1.21,0,0,1-1,.52" transform="translate(-2.26 -1.78)"/></svg>