<?xml version="1.0" encoding="UTF-8" standalone="no"?>
<!-- Generator: Adobe Illustrator 23.1.0, SVG Export Plug-In . SVG Version: 6.00 Build 0)  -->

<svg
   xmlns:dc="http://purl.org/dc/elements/1.1/"
   xmlns:cc="http://creativecommons.org/ns#"
   xmlns:rdf="http://www.w3.org/1999/02/22-rdf-syntax-ns#"
   xmlns:svg="http://www.w3.org/2000/svg"
   xmlns="http://www.w3.org/2000/svg"
   xmlns:xlink="http://www.w3.org/1999/xlink"
   xmlns:sodipodi="http://sodipodi.sourceforge.net/DTD/sodipodi-0.dtd"
   xmlns:inkscape="http://www.inkscape.org/namespaces/inkscape"
   version="1.1"
   id="Capa_3"
   x="0px"
   y="0px"
   viewBox="0 0 110.1 68.199997"
   xml:space="preserve"
   sodipodi:docname="euromillones.svg"
   width="110.1"
   height="68.199997"
   inkscape:version="0.92.5 (2060ec1f9f, 2020-04-08)"><metadata
   id="metadata165"><rdf:RDF><cc:Work
       rdf:about=""><dc:format>image/svg+xml</dc:format><dc:type
         rdf:resource="http://purl.org/dc/dcmitype/StillImage" /><dc:title>logoEuromillonesElementoDestacado_topaz</dc:title></cc:Work></rdf:RDF></metadata><defs
   id="defs163" /><sodipodi:namedview
   pagecolor="#ffffff"
   bordercolor="#666666"
   borderopacity="1"
   objecttolerance="10"
   gridtolerance="10"
   guidetolerance="10"
   inkscape:pageopacity="0"
   inkscape:pageshadow="2"
   inkscape:window-width="1848"
   inkscape:window-height="1022"
   id="namedview161"
   showgrid="false"
   inkscape:zoom="7.0447761"
   inkscape:cx="16.25"
   inkscape:cy="16.75"
   inkscape:window-x="72"
   inkscape:window-y="21"
   inkscape:window-maximized="1"
   inkscape:current-layer="Capa_3" />

<title
   id="title4">logoEuromillonesElementoDestacado_topaz</title>
<g
   id="g158"
   transform="matrix(3.4295999,0,0,2.0503796,-0.97183997,0.34830508)">
	<g
   id="g29">
		<defs
   id="defs7">
			<path
   id="SVGID_1_"
   d="m 22.1,0.1 v 3 c 0,0.2 -0.1,0.3 -0.2,0.4 l -2.5,1.6 c -0.1,0.1 -0.1,0.2 0,0.2 l 2.8,1 c 0.1,0.1 0.3,0.2 0.3,0.3 l 0.7,2.9 c 0,0.1 0.1,0.2 0.2,0 L 25.1,7.1 C 25.2,7 25.4,6.9 25.5,6.9 l 2.9,0.2 c 0.1,0 0.2,-0.1 0.1,-0.2 L 27,4.5 C 26.9,4.4 26.9,4.2 26.9,4 L 28,1.3 C 28,1.2 28,1.1 27.9,1.1 L 25,2 C 24.9,2 24.7,2 24.6,1.9 L 22.3,0 c 0,0 -0.1,0 -0.1,0 0,0 -0.1,0 -0.1,0.1"
   inkscape:connector-curvature="0" />
		</defs>
		<clipPath
   id="SVGID_2_">
			<use
   xlink:href="#SVGID_1_"
   style="overflow:visible"
   id="use9"
   x="0"
   y="0"
   width="100%"
   height="100%" />
		</clipPath>
		<g
   class="st0"
   clip-path="url(#SVGID_2_)"
   id="g27">
			
				<linearGradient
   id="SVGID_3_"
   gradientUnits="userSpaceOnUse"
   x1="-642.06238"
   y1="1104.1588"
   x2="-641.87341"
   y2="1104.1588"
   gradientTransform="matrix(52.0472,11.063,11.063,-52.0472,21221.727,64575.395)">
				<stop
   offset="0"
   style="stop-color:#A5844A"
   id="stop12" />
				<stop
   offset="0.17"
   style="stop-color:#BB9950"
   id="stop14" />
				<stop
   offset="0.38"
   style="stop-color:#C8A653"
   id="stop16" />
				<stop
   offset="0.6"
   style="stop-color:#DDBE5A"
   id="stop18" />
				<stop
   offset="0.8"
   style="stop-color:#E4C85C"
   id="stop20" />
				<stop
   offset="1"
   style="stop-color:#F0D45E"
   id="stop22" />
			</linearGradient>
			<polygon
   class="st1"
   points="30.7,0.4 28.3,11.6 17.4,9.2 19.7,-1.9 "
   id="polygon25"
   style="fill:url(#SVGID_3_)" />
		</g>
	</g>
	<g
   id="g52">
		<defs
   id="defs32">
			<path
   id="SVGID_4_"
   d="m 16.4,0.6 v 1.2 c 0,0.1 0,0.1 -0.1,0.2 l -0.9,0.6 c 0,0 0,0.1 0,0.1 l 1,0.3 c 0.1,0 0.1,0.1 0.1,0.1 l 0.3,1.1 c 0,0.1 0,0.1 0.1,0 l 0.7,-0.9 c 0,0 0.1,-0.1 0.2,-0.1 l 1.1,0.1 c 0,0 0.1,0 0,-0.1 l -0.6,-1 c 0,-0.1 0,-0.1 0,-0.2 l 0.3,-1 c 0,-0.1 0,-0.1 -0.1,-0.1 l -1.1,0.4 c -0.1,0 -0.1,0 -0.2,0 L 16.4,0.6 v 0 c 0.1,0 0.1,0 0,0"
   inkscape:connector-curvature="0" />
		</defs>
		<clipPath
   id="SVGID_5_">
			<use
   xlink:href="#SVGID_4_"
   style="overflow:visible"
   id="use34"
   x="0"
   y="0"
   width="100%"
   height="100%" />
		</clipPath>
		<g
   class="st2"
   clip-path="url(#SVGID_5_)"
   id="g50">
			
				<linearGradient
   id="SVGID_6_"
   gradientUnits="userSpaceOnUse"
   x1="-618.16669"
   y1="1070.7155"
   x2="-617.97772"
   y2="1070.7155"
   gradientTransform="matrix(20.1331,4.217,4.217,-20.1331,7945.8047,24165.742)">
				<stop
   offset="0"
   style="stop-color:#AD8A4C"
   id="stop37" />
				<stop
   offset="0.2"
   style="stop-color:#BB9950"
   id="stop39" />
				<stop
   offset="0.48"
   style="stop-color:#CCAC55"
   id="stop41" />
				<stop
   offset="0.72"
   style="stop-color:#E4C85C"
   id="stop43" />
				<stop
   offset="1"
   style="stop-color:#F0D45E"
   id="stop45" />
			</linearGradient>
			<polygon
   class="st3"
   points="19.7,0.7 18.8,5.1 14.5,4.2 15.5,-0.2 "
   id="polygon48"
   style="fill:url(#SVGID_6_)" />
		</g>
	</g>
	<g
   id="g75">
		<defs
   id="defs55">
			<path
   id="SVGID_7_"
   d="m 17.1,5.8 v 0.7 c 0,0 0,0.1 0,0.1 L 16.6,7 c 0,0 0,0 0,0 l 0.6,0.2 c 0,0 0.1,0 0.1,0.1 V 8 c 0,0 0,0 0,0 l 0.4,-0.6 c 0,0 0.1,0 0.1,0 h 0.6 c 0,0 0,0 0,0 L 18,6.8 c 0,0 0,-0.1 0,-0.1 L 18.4,6 c 0,0 0,0 0,0 l -0.6,0.2 c 0,0 -0.1,0 -0.1,0 L 17.1,5.8 v 0 0"
   inkscape:connector-curvature="0" />
		</defs>
		<clipPath
   id="SVGID_8_">
			<use
   xlink:href="#SVGID_7_"
   style="overflow:visible"
   id="use57"
   x="0"
   y="0"
   width="100%"
   height="100%" />
		</clipPath>
		<g
   class="st4"
   clip-path="url(#SVGID_8_)"
   id="g73">
			
				<linearGradient
   id="SVGID_9_"
   gradientUnits="userSpaceOnUse"
   x1="-590.34821"
   y1="1031.9012"
   x2="-590.151"
   y2="1031.9012"
   gradientTransform="matrix(11.5592,2.4212,2.4212,-11.5592,4342.4272,13363.986)">
				<stop
   offset="0"
   style="stop-color:#AD8A4C"
   id="stop60" />
				<stop
   offset="0.2"
   style="stop-color:#BB9950"
   id="stop62" />
				<stop
   offset="0.48"
   style="stop-color:#CCAC55"
   id="stop64" />
				<stop
   offset="0.72"
   style="stop-color:#E4C85C"
   id="stop66" />
				<stop
   offset="1"
   style="stop-color:#F0D45E"
   id="stop68" />
			</linearGradient>
			<polygon
   class="st5"
   points="19,5.9 18.4,8.4 16,7.9 16.5,5.3 "
   id="polygon71"
   style="fill:url(#SVGID_9_)" />
		</g>
	</g>
	<g
   id="g98">
		<defs
   id="defs78">
			<path
   id="SVGID_10_"
   d="m 11.8,5 v 0.7 c 0,0 0,0.1 0,0.1 l -0.6,0.4 c 0,0 0,0 0,0.1 l 0.6,0.2 c 0,0 0.1,0 0.1,0.1 l 0.2,0.7 c 0,0 0,0 0,0 l 0.4,-0.6 c 0,0 0.1,0 0.1,0 h 0.7 c 0,0 0,0 0,0 L 12.9,6 c 0,0 0,-0.1 0,-0.1 l 0.2,-0.7 c 0,0 0,0 0,0 l -0.6,0.2 c 0,0 -0.1,0 -0.1,0 L 11.8,5 v 0 0"
   inkscape:connector-curvature="0" />
		</defs>
		<clipPath
   id="SVGID_11_">
			<use
   xlink:href="#SVGID_10_"
   style="overflow:visible"
   id="use80"
   x="0"
   y="0"
   width="100%"
   height="100%" />
		</clipPath>
		<g
   class="st6"
   clip-path="url(#SVGID_11_)"
   id="g96">
			
				<linearGradient
   id="SVGID_12_"
   gradientUnits="userSpaceOnUse"
   x1="-590.83319"
   y1="1035.3777"
   x2="-590.63599"
   y2="1035.3777"
   gradientTransform="matrix(11.98,2.5093,2.5093,-11.98,4490.9443,13892.279)">
				<stop
   offset="0"
   style="stop-color:#AD8A4C"
   id="stop83" />
				<stop
   offset="0.2"
   style="stop-color:#BB9950"
   id="stop85" />
				<stop
   offset="0.48"
   style="stop-color:#CCAC55"
   id="stop87" />
				<stop
   offset="0.72"
   style="stop-color:#E4C85C"
   id="stop89" />
				<stop
   offset="1"
   style="stop-color:#F0D45E"
   id="stop91" />
			</linearGradient>
			<polygon
   class="st7"
   points="13.8,5.1 13.2,7.7 10.7,7.2 11.3,4.6 "
   id="polygon94"
   style="fill:url(#SVGID_12_)" />
		</g>
	</g>
	<g
   id="g121">
		<defs
   id="defs101">
			<path
   id="SVGID_13_"
   d="m 14.6,4.2 v 0.5 c 0,0 0,0 0,0.1 L 14.3,5 c 0,0 0,0 0,0 l 0.4,0.1 c 0,0 0,0 0,0.1 l 0.1,0.5 v 0 l 0.3,-0.4 c 0,0 0,0 0.1,0 h 0.5 v 0 L 15.4,4.9 c 0,0 0,0 0,-0.1 l 0.2,-0.5 v 0 l -0.4,0.1 c 0,0 0,0 -0.1,0 L 14.6,4.2 v 0 0"
   inkscape:connector-curvature="0" />
		</defs>
		<clipPath
   id="SVGID_14_">
			<use
   xlink:href="#SVGID_13_"
   style="overflow:visible"
   id="use103"
   x="0"
   y="0"
   width="100%"
   height="100%" />
		</clipPath>
		<g
   class="st8"
   clip-path="url(#SVGID_14_)"
   id="g119">
			
				<linearGradient
   id="SVGID_15_"
   gradientUnits="userSpaceOnUse"
   x1="-559.80432"
   y1="990.29413"
   x2="-559.6153"
   y2="990.29413"
   gradientTransform="matrix(8.0258,1.6811,1.6811,-8.0258,2842.2258,8893.8027)">
				<stop
   offset="0"
   style="stop-color:#AD8A4C"
   id="stop106" />
				<stop
   offset="0.2"
   style="stop-color:#BB9950"
   id="stop108" />
				<stop
   offset="0.48"
   style="stop-color:#CCAC55"
   id="stop110" />
				<stop
   offset="0.72"
   style="stop-color:#E4C85C"
   id="stop112" />
				<stop
   offset="1"
   style="stop-color:#F0D45E"
   id="stop114" />
			</linearGradient>
			<polygon
   class="st9"
   points="15.9,4.3 15.6,6 13.9,5.7 14.2,3.9 "
   id="polygon117"
   style="fill:url(#SVGID_15_)" />
		</g>
	</g>
	<g
   id="g144">
		<defs
   id="defs124">
			<path
   id="SVGID_16_"
   d="m 9.4,3.9 v 0.4 c 0,0 0,0 0,0.1 L 9,4.7 v 0 l 0.4,0.1 c 0,0 0,0 0,0 l 0.1,0.4 v 0 L 9.7,4.9 c 0,0 0,0 0.1,0 h 0.4 v 0 L 9.9,4.6 c 0,0 0,-0.1 0,-0.1 L 10,4.1 v 0 L 9.7,4.2 c 0,0 0,0 -0.1,0 L 9.4,3.9 v 0 0"
   inkscape:connector-curvature="0" />
		</defs>
		<clipPath
   id="SVGID_17_">
			<use
   xlink:href="#SVGID_16_"
   style="overflow:visible"
   id="use126"
   x="0"
   y="0"
   width="100%"
   height="100%" />
		</clipPath>
		<g
   class="st10"
   clip-path="url(#SVGID_17_)"
   id="g142">
			
				<linearGradient
   id="SVGID_18_"
   gradientUnits="userSpaceOnUse"
   x1="-546.97113"
   y1="976.98688"
   x2="-546.7821"
   y2="976.98688"
   gradientTransform="matrix(7.282,1.5253,1.5253,-7.282,2501.5425,7953.0933)">
				<stop
   offset="0"
   style="stop-color:#AD8A4C"
   id="stop129" />
				<stop
   offset="0.2"
   style="stop-color:#BB9950"
   id="stop131" />
				<stop
   offset="0.48"
   style="stop-color:#CCAC55"
   id="stop133" />
				<stop
   offset="0.72"
   style="stop-color:#E4C85C"
   id="stop135" />
				<stop
   offset="1"
   style="stop-color:#F0D45E"
   id="stop137" />
			</linearGradient>
			<polygon
   class="st11"
   points="10.6,4 10.2,5.6 8.7,5.3 9,3.6 "
   id="polygon140"
   style="fill:url(#SVGID_18_)" />
		</g>
	</g>
	<g
   id="g156">
		<defs
   id="defs147">
			<rect
   id="SVGID_19_"
   x="-13.7"
   y="0.60000002"
   width="59.700001"
   height="33.900002" />
		</defs>
		<clipPath
   id="SVGID_20_">
			<use
   xlink:href="#SVGID_19_"
   style="overflow:visible"
   id="use149"
   x="0"
   y="0"
   width="100%"
   height="100%" />
		</clipPath>
		<g
   class="st12"
   clip-path="url(#SVGID_20_)"
   id="g154">
			<path
   class="st13"
   d="M 11.5,26.5 H 9.2 V 25.7 H 11 v -1 H 9.2 V 24 h 2.1 V 22.9 H 8 v 4.7 h 3.5 z m 6,-0.5 h 0.7 l 0.8,1.6 h 1.3 l -1,-1.8 c 0.5,-0.3 0.8,-0.8 0.7,-1.4 0.1,-0.8 -0.6,-1.5 -1.4,-1.6 -0.1,0 -0.2,0 -0.3,0 h -2.1 v 4.7 h 1.2 V 26 Z m 0,-2.2 h 0.8 c 0.3,0 0.5,0.2 0.6,0.5 0,0 0,0.1 0,0.1 0,0.3 -0.2,0.5 -0.5,0.6 0,0 0,0 -0.1,0 h -0.8 z m 2.6,-6.6 c 0,-1.9 -1.6,-3.4 -3.5,-3.4 -1.9,0 -3.4,1.6 -3.4,3.5 0,1.9 1.6,3.4 3.4,3.4 2,0 3.5,-1.6 3.5,-3.5 0,0 0,0 0,0 m -3.6,-2.7 v 0 c 0.2,0 0.4,-0.1 0.5,-0.1 0.9,0 1.7,0.7 1.7,1.6 0,0.9 -0.7,1.7 -1.6,1.7 -0.9,0 -1.7,-0.7 -1.7,-1.6 -0.1,-0.7 0.4,-1.3 1.1,-1.6 m -1,5.1 c -0.1,0 -0.2,-0.1 -0.2,-0.1 h -0.1 v 0 0 0 0 0 H 15.1 C 15,19.4 14.8,19.3 14.7,19.1 14.6,19 14.5,18.8 14.4,18.6 14.4,18.5 14.3,18.4 14.3,18.3 14.1,18 14,17.7 14,17.3 c 0,-0.1 0,-0.2 0,-0.3 0,-0.1 0,-0.2 0,-0.3 0,-0.2 0.1,-0.4 0.2,-0.6 0,0 0,0 0,-0.1 0,0 0,0 0,-0.1 v 0 0 0 0 0 0 0 l 0.2,-0.3 c 0,0 0.1,-0.1 0.1,-0.1 0.2,-0.3 0.5,-0.6 0.8,-0.7 v 0 l -0.1,0.1 V 15 l -0.1,0.2 c 0,0.1 -0.1,0.1 -0.1,0.2 l -0.1,0.2 c -0.1,0.3 -0.1,0.7 -0.1,1 0.1,0.4 0.2,0.7 0.4,1.1 0,0 0.1,0.1 0.1,0.1 v 0.1 0 0 0 0 0 0 0 0 0 l 0.1,0.1 c 0,0 0,0 0.1,0.1 0.1,0.1 0.2,0.1 0.2,0.2 0.1,0.1 0.2,0.1 0.3,0.2 0.2,0.1 0.4,0.2 0.7,0.2 0.1,0 0.2,0 0.4,0 h 0.4 c 0.2,0 0.3,0.1 0.5,0.1 l 0.2,-0.1 0.2,-0.1 c 0.2,-0.1 0.4,-0.3 0.6,-0.5 0.2,-0.2 0.3,-0.4 0.5,-0.6 v 0 0 0 0 0 0 0 0 c 0,0.2 0,0.3 0,0.5 0,0.1 -0.1,0.3 -0.1,0.4 l -0.4,-0.1 -0.1,0.2 -0.1,0.2 c 0,0 0,0 0,0 v 0 0 0 0 0 0 0.1 0 0 0 0 L 18.6,19 v 0.1 l -0.2,0.2 c -0.1,0.1 -0.3,0.2 -0.4,0.3 -0.1,0.1 -0.3,0.2 -0.5,0.2 -0.6,0.2 -1.4,0.1 -2,-0.2 m -2.9,0.6 h -0.7 v -9.7 h 9.4 v 9.7 H 20.6 V 21 h 1.5 V 9.7 h -11 V 21 h 1.5 z m -0.8,2.6 v 2.9 c 0.1,1.1 1,1.9 2.1,1.9 1,-0.1 1.8,-0.9 1.9,-1.9 v -2.9 h -1.3 v 2.8 c 0,0.5 -0.2,0.9 -0.7,0.9 -0.5,0 -0.8,-0.4 -0.8,-0.9 V 22.8 Z M 4,28.2 2.9,30.3 1.8,28.2 H 0.6 l -0.2,4.7 h 1.2 l 0.1,-2.8 0.9,1.6 h 0.7 l 0.8,-1.6 0.1,2.8 H 5.4 L 5.2,28.2 Z m 18.9,2.6 -1.8,-2.6 H 20 v 4.7 h 1.2 v -2.7 l 1.8,2.7 h 1 V 28.2 H 22.8 Z M 26,31 h 1.7 V 30 H 26 v -0.7 h 2.1 v -1.1 h -3.3 v 4.7 h 3.5 V 31.8 H 26 Z M 5.9,32.9 H 7.1 V 28.2 H 5.9 Z M 22.7,22.7 c -1.3,0 -2.4,1 -2.4,2.3 0,0.1 0,0.1 0,0.2 -0.1,1.3 0.9,2.4 2.2,2.5 0.1,0 0.1,0 0.2,0 1.4,0 2.5,-1.1 2.5,-2.5 0,-1.4 -1.1,-2.5 -2.5,-2.5 m 0,3.8 c -0.6,0 -1.2,-0.5 -1.1,-1.2 0,0 0,-0.1 0,-0.1 -0.1,-0.6 0.3,-1.2 1,-1.3 0.7,-0.1 1.2,0.3 1.3,1 0,0.1 0,0.2 0,0.3 0.1,0.6 -0.4,1.2 -1,1.3 -0.1,0 -0.1,0 -0.2,0 m -10,1.7 h -1.2 v 4.7 h 3.2 v -1.1 h -2 z m 4.5,-0.1 c -1.4,0 -2.5,1.1 -2.5,2.5 0,1.4 1.1,2.5 2.5,2.5 1.4,0 2.5,-1.1 2.5,-2.5 0,-1.4 -1.2,-2.5 -2.5,-2.5 m 0,3.8 c -0.7,0.1 -1.4,-0.4 -1.5,-1.1 -0.1,-0.7 0.4,-1.4 1.1,-1.5 0.7,-0.1 1.4,0.4 1.5,1.1 0,0.1 0,0.1 0,0.2 0.1,0.6 -0.4,1.2 -1,1.3 0,0 -0.1,0 -0.1,0 M 9,28.2 H 7.8 v 4.7 H 11 V 31.8 H 9 Z m 21,1.2 c 0,-0.2 0.1,-0.3 0.4,-0.3 0.4,0 0.8,0.2 1.1,0.4 l 0.6,-0.8 c -0.5,-0.4 -1,-0.6 -1.6,-0.6 -1.3,0 -1.8,0.7 -1.8,1.4 0,1.5 2.2,1.4 2.2,2.1 0,0.2 -0.3,0.4 -0.5,0.4 -0.4,0 -0.9,-0.2 -1.2,-0.5 l -0.7,0.9 c 0.5,0.5 1.2,0.7 1.9,0.7 0.9,0.1 1.8,-0.6 1.9,-1.6 C 32.3,29.9 30,30 30,29.4"
   id="path152"
   inkscape:connector-curvature="0"
   style="fill:#242b5a" />
		</g>
	</g>
</g>
</svg>