<?xml version="1.0" encoding="UTF-8" standalone="no"?>
<!-- Generator: Adobe Illustrator 23.1.0, SVG Export Plug-In . SVG Version: 6.00 Build 0)  -->

<svg
   xmlns:dc="http://purl.org/dc/elements/1.1/"
   xmlns:cc="http://creativecommons.org/ns#"
   xmlns:rdf="http://www.w3.org/1999/02/22-rdf-syntax-ns#"
   xmlns:svg="http://www.w3.org/2000/svg"
   xmlns="http://www.w3.org/2000/svg"
   xmlns:xlink="http://www.w3.org/1999/xlink"
   xmlns:sodipodi="http://sodipodi.sourceforge.net/DTD/sodipodi-0.dtd"
   xmlns:inkscape="http://www.inkscape.org/namespaces/inkscape"
   version="1.1"
   id="Capa_1"
   x="0px"
   y="0px"
   viewBox="0 0 110.1 68.320002"
   xml:space="preserve"
   sodipodi:docname="primitiva.svg"
   width="110.1"
   height="68.32"
   inkscape:version="0.92.5 (2060ec1f9f, 2020-04-08)"><metadata
   id="metadata55"><rdf:RDF><cc:Work
       rdf:about=""><dc:format>image/svg+xml</dc:format><dc:type
         rdf:resource="http://purl.org/dc/dcmitype/StillImage" /><dc:title>logoPrimitivaElementoDestacado_topaz</dc:title></cc:Work></rdf:RDF></metadata><defs
   id="defs53" /><sodipodi:namedview
   pagecolor="#ffffff"
   bordercolor="#666666"
   borderopacity="1"
   objecttolerance="10"
   gridtolerance="10"
   guidetolerance="10"
   inkscape:pageopacity="0"
   inkscape:pageshadow="2"
   inkscape:window-width="1848"
   inkscape:window-height="1022"
   id="namedview51"
   showgrid="false"
   inkscape:zoom="4.0162036"
   inkscape:cx="43.200001"
   inkscape:cy="21.049999"
   inkscape:window-x="72"
   inkscape:window-y="21"
   inkscape:window-maximized="1"
   inkscape:current-layer="Capa_1" />

<title
   id="title4">logoPrimitivaElementoDestacado_topaz</title>
<polygon
   class="st0"
   points="6.6,39.9 6.6,34 4.4,34 4.4,41.9 9.6,41.9 9.6,39.9 "
   id="polygon6"
   style="fill:#008447"
   transform="matrix(1.3561603,0,0,1.6590948,-1.5671054,-1.396069)" />
<path
   class="st0"
   d="m 18.910915,63.474537 h -2.305472 l 1.220544,-3.650009 z m -2.441088,-8.627293 -4.339713,13.106848 h 3.119169 l 0.542464,-1.659094 h 3.932865 l 0.542464,1.659094 h 3.254785 L 19.182147,54.847244 Z"
   id="path8"
   inkscape:connector-curvature="0"
   style="fill:#008447;stroke-width:1.49999952" />
<g
   id="g48"
   transform="matrix(1.3561603,0,0,1.6590948,-1.5671054,-1.396069)">
	<defs
   id="defs11">
		<rect
   id="SVGID_1_"
   x="-10.6"
   y="-8.3999996"
   width="107.6"
   height="61.099998" />
	</defs>
	<clipPath
   id="SVGID_2_">
		<use
   xlink:href="#SVGID_1_"
   style="overflow:visible"
   id="use13"
   x="0"
   y="0"
   width="100%"
   height="100%" />
	</clipPath>
	<g
   class="st1"
   clip-path="url(#SVGID_2_)"
   id="g46">
		<path
   class="st0"
   d="m 25.5,36 h 1.4 c 0.1,0 0.3,0 0.4,0.1 0.2,0.1 0.3,0.4 0.3,0.7 0,0.3 -0.1,0.6 -0.3,0.7 -0.1,0.1 -0.2,0.1 -0.4,0.1 h -1.4 z m 3.3,-1.3 C 28.3,34.2 27.7,34 27,34 h -3.8 v 7.9 h 2.2 V 39.6 H 27 c 0.7,0 1.4,-0.3 1.9,-0.8 0.6,-0.5 0.9,-1.3 0.9,-2 0,-0.8 -0.4,-1.6 -1,-2.1"
   id="path16"
   inkscape:connector-curvature="0"
   style="fill:#008447" />
		<path
   class="st0"
   d="m 33.1,36 h 1.3 c 0.4,0 0.7,0.3 0.7,0.7 0,0 0,0 0,0 0.1,0.4 -0.2,0.8 -0.6,0.9 -0.1,0 -0.2,0 -0.3,0 h -1.1 z m 4.2,0.7 c 0,-0.7 -0.3,-1.4 -0.8,-2 -0.5,-0.5 -1.3,-0.8 -2,-0.8 h -3.6 v 7.9 h 2.2 v -2.4 h 0.7 l 1.6,2.4 H 38 L 36,39 c 0.8,-0.5 1.3,-1.3 1.3,-2.3"
   id="path18"
   inkscape:connector-curvature="0"
   style="fill:#008447" />
		<rect
   x="38.799999"
   y="34"
   class="st0"
   width="2.2"
   height="7.9000001"
   id="rect20"
   style="fill:#008447" />
		<polygon
   class="st0"
   points="44.6,37.9 46.9,41 49.1,37.9 49.1,41.9 51.2,41.9 51.2,34 49.4,34 46.9,37.5 44.4,34 42.5,34 42.5,41.9 44.6,41.9 "
   id="polygon22"
   style="fill:#008447" />
		<rect
   x="52.700001"
   y="34"
   class="st0"
   width="2.2"
   height="7.9000001"
   id="rect24"
   style="fill:#008447" />
		<polygon
   class="st0"
   points="62.3,36 62.3,34 55.9,34 55.9,36 58,36 58,41.9 60.2,41.9 60.2,36 "
   id="polygon26"
   style="fill:#008447" />
		<rect
   x="63.200001"
   y="34"
   class="st0"
   width="2.2"
   height="7.9000001"
   id="rect28"
   style="fill:#008447" />
		<polygon
   class="st0"
   points="71.6,41.9 74.8,34 72.4,34 70.6,38.7 68.7,34 66.4,34 69.6,41.9 "
   id="polygon30"
   style="fill:#008447" />
		<path
   class="st0"
   d="M 78.7,39.1 H 77 l 0.9,-2.2 z m 0.1,-5.2 h -2 l -3.3,8 h 2.4 l 0.4,-1 h 2.9 l 0.4,1 H 82 Z"
   id="path32"
   inkscape:connector-curvature="0"
   style="fill:#008447" />
		<polygon
   class="st0"
   points="33.1,2.9 33.1,23.1 34.5,23.1 34.5,24.8 31.4,24.8 31.4,1.1 55,1.1 55,24.8 51.8,24.8 51.8,23.1 53.3,23.1 53.3,2.9 "
   id="polygon34"
   style="fill:#008447" />
		<path
   class="st0"
   d="m 50.5,17.9 c 0.1,-0.4 0.1,-0.7 0.1,-1.1 0,-0.3 0,-0.7 -0.1,-1 -2.2,-0.2 -4.6,-0.3 -7.2,-0.3 -2.9,0 -5.6,0.2 -7.4,0.3 -0.1,0.3 -0.1,0.7 -0.1,1 0,0.4 0,0.7 0.1,1.1 1.6,0.1 4.2,0.3 7.4,0.3 2.3,0 4.8,-0.1 7.2,-0.3"
   id="path36"
   inkscape:connector-curvature="0"
   style="fill:#008447" />
		<path
   class="st0"
   d="m 49,21.4 c 0.6,-0.7 1,-1.5 1.3,-2.4 -2.3,0.2 -4.7,0.3 -6.9,0.3 -3,0 -5.5,-0.1 -7.1,-0.3 0.3,0.9 0.7,1.7 1.3,2.4 1.9,0.4 3.9,0.6 5.8,0.6 1.8,0 3.7,-0.2 5.6,-0.6"
   id="path38"
   inkscape:connector-curvature="0"
   style="fill:#008447" />
		<path
   class="st0"
   d="m 37.4,12.2 c -0.6,0.7 -1,1.5 -1.3,2.4 1.8,-0.1 4.3,-0.3 7.1,-0.3 2.5,0 4.8,0.2 7,0.3 C 50,13.8 49.5,13 49,12.2 c -1.9,-0.4 -3.8,-0.6 -5.7,-0.6 -2,0 -3.9,0.2 -5.9,0.6"
   id="path40"
   inkscape:connector-curvature="0"
   style="fill:#008447" />
		<path
   class="st0"
   d="m 43.3,10.5 c 1.4,0 2.8,0.1 4.2,0.3 -2.6,-1.8 -6,-1.8 -8.5,0 1.4,-0.2 2.8,-0.3 4.3,-0.3"
   id="path42"
   inkscape:connector-curvature="0"
   style="fill:#008447" />
		<path
   class="st0"
   d="m 43.3,23.1 c -1.4,0 -2.9,-0.1 -4.3,-0.3 2.5,1.8 5.9,1.8 8.5,0 -1.4,0.2 -2.8,0.3 -4.2,0.3"
   id="path44"
   inkscape:connector-curvature="0"
   style="fill:#008447" />
	</g>
</g>
</svg>